<svg width="2443" height="2500" viewBox="0 0 2443 2500" fill="none" xmlns="http://www.w3.org/2000/svg">
<path d="M2441.71 1273.39C2441.71 1170.96 2433.4 1096.22 2415.41 1018.71H1245.83V1481H1932.35C1918.51 1595.89 1843.77 1768.9 1677.67 1885.16L1675.35 1900.64L2045.14 2187.12L2070.77 2189.68C2306.06 1972.37 2441.71 1652.63 2441.71 1273.39Z" fill="#4285F4"/>
<path d="M1245.83 2491.41C1582.17 2491.41 1864.52 2380.68 2070.77 2189.68L1677.67 1885.16C1572.48 1958.52 1431.3 2009.73 1245.83 2009.73C916.414 2009.73 636.824 1792.43 537.158 1492.08L522.55 1493.32L138.027 1790.91L132.998 1804.89C337.845 2211.81 758.618 2491.41 1245.83 2491.41Z" fill="#34A853"/>
<path d="M537.158 1492.08C510.861 1414.57 495.641 1331.52 495.641 1245.71C495.641 1159.89 510.861 1076.84 535.775 999.332L535.078 982.824L145.737 680.458L132.998 686.517C48.5706 855.382 0.125977 1045.01 0.125977 1245.71C0.125977 1446.4 48.5706 1636.02 132.998 1804.89L537.158 1492.08Z" fill="#FBBC05"/>
<path d="M1245.83 481.67C1479.74 481.67 1637.53 582.71 1727.5 667.147L2079.07 323.884C1863.15 123.187 1582.17 2.28882e-05 1245.83 2.28882e-05C758.618 2.28882e-05 337.845 279.59 132.998 686.517L535.775 999.332C636.824 698.979 916.414 481.67 1245.83 481.67Z" fill="#EB4335"/>
</svg>
