<svg width="101" height="101" viewBox="0 0 101 101" fill="none" xmlns="http://www.w3.org/2000/svg">
<path d="M50.3999 54.5C60.4999 54.5 68.5999 46.3 68.5999 36.3C68.5999 26.3 60.4999 18 50.3999 18C40.2999 18 32.1999 26.2 32.1999 36.2C32.1999 46.2 40.2999 54.5 50.3999 54.5ZM50.3999 22.8C57.7999 22.8 63.7999 28.8 63.7999 36.2C63.7999 43.6 57.7999 49.6 50.3999 49.6C42.9999 49.6 36.9999 43.7 36.9999 36.3C36.9999 28.9 42.9999 22.8 50.3999 22.8ZM18.7999 83H82.1999C83.4999 83 84.5999 81.9 84.5999 80.6C84.5999 68 74.2999 57.7 61.6999 57.7H39.2999C26.6999 57.7 16.3999 68 16.3999 80.6C16.3999 81.9 17.4999 83 18.7999 83ZM39.2999 62.5H61.6999C70.8999 62.5 78.3999 69.3 79.5999 78.2H21.3999C22.5999 69.3 30.0999 62.5 39.2999 62.5Z" fill="black"/>
</svg>
